# xmcd
#
# Track frame offsets: 
#        150
#        16547
#        34379
#        51716
#        62733
#        66601
#        84879
#        88041
#        104625
#        117854
#        134295
#        146007
#        160504
#        176779
#        202652
#        220477
#        235212
#        245026
#        261252
#        279446
#
# Disc length: 4103 seconds
#
# Revision: 0
# Processed by: cddbd v1.5.2PL0 Copyright (c) Steve Scherf et al.
# Submitted via: ExactAudioCopy v0.95b3
#
DISCID=2b100514
DTITLE=The Beatles  - Let It Be Deluxe - 11 - Disc 1 - stereo  FLAC
DYEAR=1900
DGENRE=
TTITLE0=Two Of Us (stereo)
TTITLE1=Dig A Pony (stereo)
TTITLE2=Across The Universe (stereo)
TTITLE3=I Me Mine (stereo)
TTITLE4=Dig It (stereo)
TTITLE5=Let It Be (stereo)
TTITLE6=Maggie Mae (stereo)
TTITLE7=I've Got A Feeling (stereo)
TTITLE8=One After 909 (stereo)
TTITLE9=The Long And Winding Road (stereo)
TTITLE10=For You Blue (stereo)
TTITLE11=Get Back (stereo)
TTITLE12=Don't Let Me Down (stereo)
TTITLE13=You Know My Name (Look Up The Number) (stereo)
TTITLE14=Let It Be (stereo single)
TTITLE15=Get Back (stereo single)
TTITLE16=Don't Let Me Down (Imagine John Lennon)
TTITLE17=The Long And Winding Road (Anthology DVD)
TTITLE18=Let It Be (Anthology DVD)
TTITLE19=Anthology DVD medley
EXTD=
EXTT0=
EXTT1=
EXTT2=
EXTT3=
EXTT4=
EXTT5=
EXTT6=
EXTT7=
EXTT8=
EXTT9=
EXTT10=
EXTT11=
EXTT12=
EXTT13=
EXTT14=
EXTT15=
EXTT16=
EXTT17=
EXTT18=
EXTT19=
PLAYORDER=
